# xmcd
# 
# Track frame offsets:
#     150
#     30232
#     55255
#     85890
#     114435
#     145027
#     171397
# 
# Disc length: 2557
# 
# Revision: 1
# Processed by: cddbd v1.5.2PL0 Copyright (c) Steve Scherf et al.
# Submitted via: BonkEnc v1.0.8
# 
DISCID=5209fb07
DTITLE=Bob James - Heads
DYEAR=1977
DGENRE=Fusion
TTITLE0=Heads
TTITLE1=We're All Alone
TTITLE2=I'm In You
TTITLE3=Night Crawler
TTITLE4=You're So Beautiful
TTITLE5=One Loving Night
TTITLE6=Foot Fetish
EXTD=
EXTT0=
EXTT1=
EXTT2=
EXTT3=
EXTT4=
EXTT5=
EXTT6=
PLAYORDER=
